<svg width="43" height="52" viewBox="0 0 43 52" fill="none" xmlns="http://www.w3.org/2000/svg">
<path d="M35.303 27.3207C35.2452 20.904 40.5584 17.7822 40.8013 17.6369C37.7923 13.2509 33.1283 12.6517 31.4894 12.6039C27.5722 12.1918 23.7726 14.9472 21.7772 14.9472C19.7419 14.9472 16.6691 12.6437 13.3574 12.7114C9.09571 12.7771 5.10886 15.2438 2.92227 19.0743C-1.59032 26.8847 1.7752 38.3622 6.0986 44.6754C8.2613 47.7693 10.7884 51.2195 14.0962 51.098C17.3323 50.9666 18.5411 49.0375 22.4463 49.0375C26.3156 49.0375 27.4507 51.098 30.8242 51.0204C34.2973 50.9666 36.4839 47.9146 38.5709 44.7948C41.0701 41.253 42.0738 37.761 42.1137 37.5818C42.034 37.5539 35.3707 35.0095 35.303 27.3207ZM28.9304 8.45087C30.6709 6.27481 31.8618 3.31433 31.5312 0.310059C29.012 0.421549 25.8616 2.0521 24.0474 4.18038C22.4423 6.05581 21.0085 9.12977 21.3789 12.0206C24.2087 12.2316 27.1142 10.5931 28.9304 8.45087Z" fill="white"/>
</svg>
