<svg width="21" height="21" viewBox="0 0 21 21" fill="none" xmlns="http://www.w3.org/2000/svg">
<path d="M10.4988 17.077V20.0001M14.1526 15.6155V18.5385M6.84495 15.6155V18.5385M12.0539 5.22246C11.9701 4.98476 11.8145 4.77893 11.6088 4.63338C11.403 4.48783 11.1571 4.40972 10.9051 4.40984H9.96241C9.69506 4.41079 9.43743 4.51021 9.23873 4.68909C9.04004 4.86797 8.91421 5.11378 8.88528 5.37956C8.85635 5.64535 8.92635 5.91247 9.08191 6.12991C9.23747 6.34735 9.46768 6.49986 9.72857 6.55831L11.1653 6.874C11.4578 6.93923 11.7161 7.10997 11.8907 7.35358C12.0653 7.59719 12.144 7.8966 12.1118 8.1946C12.0797 8.49259 11.9388 8.76828 11.7162 8.96899C11.4936 9.1697 11.2048 9.28135 10.9051 9.28261H10.0925C9.8405 9.28252 9.59473 9.20433 9.38901 9.05881C9.18328 8.91328 9.02772 8.70758 8.94372 8.47M10.4988 4.40984V3.19238M10.4988 10.5001V9.28261M4.28726 7.21161C4.19035 7.21161 4.09742 7.17312 4.02889 7.1046C3.96037 7.03607 3.92188 6.94313 3.92188 6.84623C3.92188 6.74932 3.96037 6.65639 4.02889 6.58786C4.09742 6.51934 4.19035 6.48084 4.28726 6.48084C4.38417 6.48084 4.4771 6.51934 4.54563 6.58786C4.61415 6.65639 4.65264 6.74932 4.65264 6.84623C4.65264 6.94313 4.61415 7.03607 4.54563 7.1046C4.4771 7.17312 4.38417 7.21161 4.28726 7.21161ZM16.7103 7.21161C16.6134 7.21161 16.5205 7.17312 16.452 7.1046C16.3834 7.03607 16.345 6.94313 16.345 6.84623C16.345 6.74932 16.3834 6.65639 16.452 6.58786C16.5205 6.51934 16.6134 6.48084 16.7103 6.48084C16.8072 6.48084 16.9002 6.51934 16.9687 6.58786C17.0372 6.65639 17.0757 6.74932 17.0757 6.84623C17.0757 6.94313 17.0372 7.03607 16.9687 7.1046C16.9002 7.17312 16.8072 7.21161 16.7103 7.21161Z" stroke="#FF0000" stroke-linecap="round" stroke-linejoin="round"/>
<path d="M18.5385 1H2.46154C2.07391 1 1.70217 1.15398 1.42807 1.42807C1.15398 1.70217 1 2.07391 1 2.46154V11.2308C1 11.6184 1.15398 11.9901 1.42807 12.2642C1.70217 12.5383 2.07391 12.6923 2.46154 12.6923H18.5385C18.9261 12.6923 19.2978 12.5383 19.5719 12.2642C19.846 11.9901 20 11.6184 20 11.2308V2.46154C20 2.07391 19.846 1.70217 19.5719 1.42807C19.2978 1.15398 18.9261 1 18.5385 1Z" stroke="#FF0000" stroke-linecap="round" stroke-linejoin="round"/>
</svg>
