<svg width="19" height="21" viewBox="0 0 19 21" fill="none" xmlns="http://www.w3.org/2000/svg">
<path d="M15 10.1667V4.43658C15.0001 4.36423 14.9865 4.29257 14.9601 4.22572C14.9336 4.15886 14.8949 4.09813 14.846 4.047L12.0915 1.16133C11.9931 1.05816 11.8597 1.00013 11.7205 1H1.525C1.38576 1 1.25223 1.05795 1.15377 1.16109C1.05531 1.26424 1 1.40413 1 1.55V18.7833C1 18.9292 1.05531 19.0691 1.15377 19.1722C1.25223 19.2754 1.38576 19.3333 1.525 19.3333H8.875M4.5 8.33333H11.5M4.5 4.66667H8M4.5 12H7.125" stroke="#FF0000" stroke-width="1.5" stroke-linecap="round" stroke-linejoin="round"/>
<path d="M11.5 1V4.11667C11.5 4.26254 11.5553 4.40243 11.6538 4.50558C11.7522 4.60872 11.8858 4.66667 12.025 4.66667H15M14.993 13.0313L17.2295 13.6262C17.4623 13.6885 17.6259 13.9103 17.6189 14.1615C17.4684 19.4397 14.5625 20.25 14.5625 20.25C14.5625 20.25 11.6566 19.4397 11.5061 14.1615C11.5034 14.0392 11.5405 13.9196 11.6113 13.8223C11.682 13.7251 11.7822 13.6559 11.8955 13.6262L14.132 13.0313C14.4146 12.9561 14.7104 12.9561 14.993 13.0313Z" stroke="#FF0000" stroke-width="1.5" stroke-linecap="round" stroke-linejoin="round"/>
</svg>
