<svg width="20" height="18" viewBox="0 0 20 18" fill="none" xmlns="http://www.w3.org/2000/svg">
<path d="M5.552 10L6.399 7.885L7.244 10H5.552ZM14 9H15V11H14C13.7348 11 13.4804 10.8946 13.2929 10.7071C13.1054 10.5196 13 10.2652 13 10C13 9.73478 13.1054 9.48043 13.2929 9.29289C13.4804 9.10536 13.7348 9 14 9ZM19 0H1C0.734784 0 0.48043 0.105357 0.292893 0.292893C0.105357 0.48043 0 0.734784 0 1V17C0 17.2652 0.105357 17.5196 0.292893 17.7071C0.48043 17.8946 0.734784 18 1 18H19C19.2652 18 19.5196 17.8946 19.7071 17.7071C19.8946 17.5196 20 17.2652 20 17V1C20 0.734784 19.8946 0.48043 19.7071 0.292893C19.5196 0.105357 19.2652 0 19 0ZM10.598 13H8.443L8.043 12H4.753L4.353 13H2.199L3.398 10.002L3.399 10L5.399 5H7.399L10.598 13ZM15 5H17V13H14C13.2044 13 12.4413 12.6839 11.8787 12.1213C11.3161 11.5587 11 10.7956 11 10C11 9.20435 11.3161 8.44129 11.8787 7.87868C12.4413 7.31607 13.2044 7 14 7H15V5Z" fill="#FF0000"/>
</svg>
