<svg width="18" height="21" viewBox="0 0 18 21" fill="none" xmlns="http://www.w3.org/2000/svg">
<path d="M8.66168 0L0 2.88723V11.5489C0 16.3331 3.87746 20.2106 8.66168 20.2106C13.4459 20.2106 17.3234 16.3331 17.3234 11.5489V2.88723L8.66168 0ZM15.6993 11.5489C15.6993 15.4354 12.5482 18.5865 8.66168 18.5865C4.7752 18.5865 1.62407 15.4354 1.62407 11.5489V4.10528L8.66168 1.62407L15.6993 4.10528V11.5489Z" fill="#FF0000"/>
<path d="M5.64449 9.27285C5.56922 9.19725 5.47977 9.13725 5.38125 9.09631C5.28274 9.05537 5.17711 9.0343 5.07043 9.0343C4.96374 9.0343 4.85811 9.05537 4.7596 9.09631C4.66108 9.13725 4.57163 9.19725 4.49636 9.27285C4.42076 9.34812 4.36076 9.43757 4.31982 9.53609C4.27889 9.6346 4.25781 9.74023 4.25781 9.84691C4.25781 9.9536 4.27889 10.0592 4.31982 10.1577C4.36076 10.2563 4.42076 10.3457 4.49636 10.421L7.41517 13.3398L7.46254 13.3872C7.53373 13.4585 7.61829 13.5151 7.71137 13.5537C7.80446 13.5923 7.90425 13.6122 8.00502 13.6122C8.1058 13.6122 8.20558 13.5923 8.29867 13.5537C8.39175 13.5151 8.47631 13.4585 8.5475 13.3872L13.5889 8.34578C13.6602 8.27459 13.7168 8.19003 13.7554 8.09695C13.794 8.00386 13.8139 7.90407 13.8139 7.8033C13.8139 7.70252 13.794 7.60274 13.7554 7.50965C13.7168 7.41657 13.6602 7.33201 13.5889 7.26082L13.5257 7.19766C13.4545 7.12633 13.37 7.06975 13.2769 7.03114C13.1838 6.99253 13.084 6.97266 12.9832 6.97266C12.8825 6.97266 12.7827 6.99253 12.6896 7.03114C12.5965 7.06975 12.5119 7.12633 12.4407 7.19766L8.00389 11.6323L5.64449 9.27285Z" fill="#FF0000"/>
</svg>
