<svg width="30" height="34" viewBox="0 0 30 34" fill="none" xmlns="http://www.w3.org/2000/svg">
<path d="M29.3093 13.9271C29.559 10.6328 27.5451 6.88081 23.31 6.48926C21.2892 6.29585 19.1463 6.92459 17.2312 8.27276C17.0714 5.9362 16.2094 3.87598 14.786 2.42869C11.7958 -0.596872 7.63098 0.186975 5.23022 2.45656C1.86594 5.63246 0.405358 10.311 0.890253 16.3631C1.27274 21.1004 2.55416 26.328 4.935 32.8241C5.00999 33.0299 5.14785 33.188 5.32671 33.2732C5.50557 33.3584 5.71517 33.3658 5.92224 33.2944C12.4539 31.0564 17.3142 28.7917 21.2531 26.0633C26.2502 22.6227 28.9629 18.5406 29.3093 13.9271Z" fill="#63BFD0"/>
</svg>
